HIERARCHY
ROOT Hips
{
    OFFSET 0.000000 0.000000 0.000000
    CHANNELS 6 Xposition Yposition Zposition Zrotation Yrotation Xrotation
    JOINT Chest
    {
        OFFSET 0.000000 1.634758 -0.000000
        CHANNELS 3 Zrotation Yrotation Xrotation
        JOINT Chest2
        {
            OFFSET 0.000000 2.197341 0.000000
            CHANNELS 3 Zrotation Yrotation Xrotation
            JOINT Neck
            {
                OFFSET 0.000000 0.961544 0.000000
                CHANNELS 3 Zrotation Yrotation Xrotation
                JOINT Head
                {
                    OFFSET 0.000000 0.632542 -0.032565
                    CHANNELS 3 Zrotation Yrotation Xrotation
                    End Site
                    {
                        OFFSET -0.000001 0.439502 2.922845
                    }
                }
            }
            JOINT LeftCollar
            {
                OFFSET 0.167536 0.778237 -0.168280
                CHANNELS 3 Zrotation Yrotation Xrotation
                JOINT LeftShoulder
                {
                    OFFSET 0.831514 -0.002900 0.006458
                    CHANNELS 3 Zrotation Yrotation Xrotation
                    JOINT LeftElbow
                    {
                        OFFSET 2.272872 -0.026639 0.059314
                        CHANNELS 3 Zrotation Yrotation Xrotation
                        JOINT LeftWrist
                        {
                            OFFSET 2.081982 -0.024402 0.054333
                            CHANNELS 3 Zrotation Yrotation Xrotation
                            JOINT LeftHandThumb1
                            {
                                OFFSET 0.218903 -0.128645 0.283837
                                CHANNELS 3 Zrotation Yrotation Xrotation
                                JOINT LeftHandThumb2
                                {
                                    OFFSET 0.137157 -0.025101 0.077902
                                    CHANNELS 3 Zrotation Yrotation Xrotation
                                    JOINT LeftHandThumb3
                                    {
                                        OFFSET 0.132616 -0.117038 0.047482
                                        CHANNELS 3 Zrotation Yrotation Xrotation
                                        End Site
                                        {
                                            OFFSET 0.228651 -0.136099 0.032131
                                        }
                                    }
                                }
                            }
                            JOINT LeftHandFore1
                            {
                                OFFSET 0.767340 -0.016076 0.196678
                                CHANNELS 3 Zrotation Yrotation Xrotation
                                JOINT LeftHandFore2
                                {
                                    OFFSET 0.140318 -0.164598 -0.014628
                                    CHANNELS 3 Zrotation Yrotation Xrotation
                                    JOINT LeftHandFore3
                                    {
                                        OFFSET -0.127236 -0.019618 0.013744
                                        CHANNELS 3 Zrotation Yrotation Xrotation
                                        End Site
                                        {
                                            OFFSET -0.114166 0.153293 0.028887
                                        }
                                    }
                                }
                            }
                            JOINT LeftHandMiddle1
                            {
                                OFFSET 0.709887 -0.008320 0.018526
                                CHANNELS 3 Zrotation Yrotation Xrotation
                                JOINT LeftHandMiddle2
                                {
                                    OFFSET 0.105041 -0.220988 0.013940
                                    CHANNELS 3 Zrotation Yrotation Xrotation
                                    JOINT LeftHandMiddle3
                                    {
                                        OFFSET -0.135432 0.053123 -0.014806
                                        CHANNELS 3 Zrotation Yrotation Xrotation
                                        End Site
                                        {
                                            OFFSET -0.128443 0.197397 -0.012920
                                        }
                                    }
                                }
                            }
                            JOINT LeftHandRing1
                            {
                                OFFSET 0.743817 -0.005823 -0.153668
                                CHANNELS 3 Zrotation Yrotation Xrotation
                                JOINT LeftHandRing2
                                {
                                    OFFSET 0.114947 -0.332268 0.033444
                                    CHANNELS 3 Zrotation Yrotation Xrotation
                                    JOINT LeftHandRing3
                                    {
                                        OFFSET -0.128136 0.044286 -0.015018
                                        CHANNELS 3 Zrotation Yrotation Xrotation
                                        End Site
                                        {
                                            OFFSET -0.045289 0.110308 -0.014177
                                        }
                                    }
                                }
                            }
                            JOINT LeftHandLittle1
                            {
                                OFFSET 0.689408 -0.053302 -0.308304
                                CHANNELS 3 Zrotation Yrotation Xrotation
                                JOINT LeftHandLittle2
                                {
                                    OFFSET 0.051423 -0.185972 0.028704
                                    CHANNELS 3 Zrotation Yrotation Xrotation
                                    JOINT LeftHandLittle3
                                    {
                                        OFFSET -0.118249 0.001393 -0.022616
                                        CHANNELS 3 Zrotation Yrotation Xrotation
                                        End Site
                                        {
                                            OFFSET -0.081277 0.165695 -0.047200
                                        }
                                    }
                                }
                            }
                        }
                    }
                }
            }
            JOINT RightCollar
            {
                OFFSET -0.167536 0.778237 -0.168280
                CHANNELS 3 Zrotation Yrotation Xrotation
                JOINT RightShoulder
                {
                    OFFSET -0.831514 -0.002900 0.006457
                    CHANNELS 3 Zrotation Yrotation Xrotation
                    JOINT RightElbow
                    {
                        OFFSET -2.272872 -0.026639 0.059313
                        CHANNELS 3 Zrotation Yrotation Xrotation
                        JOINT RightWrist
                        {
                            OFFSET -2.081982 -0.024402 0.054331
                            CHANNELS 3 Zrotation Yrotation Xrotation
                            JOINT RightHandThumb1
                            {
                                OFFSET -0.218911 -0.128571 0.283837
                                CHANNELS 3 Zrotation Yrotation Xrotation
                                JOINT RightHandThumb2
                                {
                                    OFFSET -0.137157 -0.025101 0.077902
                                    CHANNELS 3 Zrotation Yrotation Xrotation
                                    JOINT RightHandThumb3
                                    {
                                        OFFSET -0.179958 -0.032815 -0.008807
                                        CHANNELS 3 Zrotation Yrotation Xrotation
                                        End Site
                                        {
                                            OFFSET -0.247197 -0.103119 0.009840
                                        }
                                    }
                                }
                            }
                            JOINT RightHandFore1
                            {
                                OFFSET -0.767344 -0.015991 0.196679
                                CHANNELS 3 Zrotation Yrotation Xrotation
                                JOINT RightHandFore2
                                {
                                    OFFSET -0.140358 -0.164572 -0.014583
                                    CHANNELS 3 Zrotation Yrotation Xrotation
                                    JOINT RightHandFore3
                                    {
                                        OFFSET 0.127140 -0.016776 -0.017783
                                        CHANNELS 3 Zrotation Yrotation Xrotation
                                        End Site
                                        {
                                            OFFSET 0.114092 0.156038 -0.001373
                                        }
                                    }
                                }
                            }
                            JOINT RightHandMiddle1
                            {
                                OFFSET -0.709887 -0.008302 0.018525
                                CHANNELS 3 Zrotation Yrotation Xrotation
                                JOINT RightHandMiddle2
                                {
                                    OFFSET -0.105011 -0.220993 0.014021
                                    CHANNELS 3 Zrotation Yrotation Xrotation
                                    JOINT RightHandMiddle3
                                    {
                                        OFFSET 0.133804 0.053236 -0.025431
                                        CHANNELS 3 Zrotation Yrotation Xrotation
                                        End Site
                                        {
                                            OFFSET 0.126987 0.197484 -0.022465
                                        }
                                    }
                                }
                            }
                            JOINT RightHandRing1
                            {
                                OFFSET -0.743819 -0.005785 -0.153669
                                CHANNELS 3 Zrotation Yrotation Xrotation
                                JOINT RightHandRing2
                                {
                                    OFFSET -0.114952 -0.332253 0.033578
                                    CHANNELS 3 Zrotation Yrotation Xrotation
                                    JOINT RightHandRing3
                                    {
                                        OFFSET 0.122709 0.043604 -0.040572
                                        CHANNELS 3 Zrotation Yrotation Xrotation
                                        End Site
                                        {
                                            OFFSET 0.045879 0.110401 -0.011271
                                        }
                                    }
                                }
                            }
                            JOINT RightHandLittle1
                            {
                                OFFSET -0.689403 -0.053298 -0.308303
                                CHANNELS 3 Zrotation Yrotation Xrotation
                                JOINT RightHandLittle2
                                {
                                    OFFSET -0.051414 -0.185971 0.028751
                                    CHANNELS 3 Zrotation Yrotation Xrotation
                                    JOINT RightHandLittle3
                                    {
                                        OFFSET 0.115411 0.000397 -0.034289
                                        CHANNELS 3 Zrotation Yrotation Xrotation
                                        End Site
                                        {
                                            OFFSET 0.087090 0.167860 -0.022958
                                        }
                                    }
                                }
                            }
                        }
                    }
                }
            }
        }
    }
    JOINT LeftHip
    {
        OFFSET 0.685143 0.673822 -0.044491
        CHANNELS 3 Zrotation Yrotation Xrotation
        JOINT LeftKnee
        {
            OFFSET 0.085364 -3.750208 0.017676
            CHANNELS 3 Zrotation Yrotation Xrotation
            JOINT LeftAnkle
            {
                OFFSET 0.094583 -4.155206 0.019585
                CHANNELS 3 Zrotation Yrotation Xrotation
                JOINT LeftToe
                {
                    OFFSET -0.000000 -0.395925 0.621478
                    CHANNELS 3 Zrotation Yrotation Xrotation
                    End Site
                    {
                        OFFSET -0.000000 -0.077878 0.321152
                    }
                }
            }
        }
    }
    JOINT RightHip
    {
        OFFSET -0.685143 0.673822 -0.044492
        CHANNELS 3 Zrotation Yrotation Xrotation
        JOINT RightKnee
        {
            OFFSET -0.085364 -3.750208 0.017677
            CHANNELS 3 Zrotation Yrotation Xrotation
            JOINT RightAnkle
            {
                OFFSET -0.094583 -4.155206 0.019585
                CHANNELS 3 Zrotation Yrotation Xrotation
                JOINT RightToe
                {
                    OFFSET -0.000000 -0.395925 0.621478
                    CHANNELS 3 Zrotation Yrotation Xrotation
                    End Site
                    {
                        OFFSET -0.000000 -0.077878 0.321152
                    }
                }
            }
        }
    }
}
MOTION
Frames: 6
Frame Time: 0.033333
-0.008905 8.276052 -0.487584 180.000000 -0.000011 180.000000 -2.708767 -2.093101 -1.992447 -0.020428 0.324866 -3.645313 3.645655 -0.512232 4.691927 0.018303 -0.355418 11.121400 -14.547613 6.812591 0.107395 -68.402512 27.533003 -10.783128 0.006345 -8.166113 -0.096315 -26.327845 8.889461 110.563904 -0.000003 0.000005 0.000002 0.000000 -0.000005 -0.000004 0.000005 -0.000000 0.000003 -0.000007 0.000001 -0.000002 0.000002 -0.000000 0.000001 -0.000005 0.000003 -0.000001 -0.000003 0.000003 0.000000 0.000000 -0.000000 0.000001 0.000009 -0.000001 -0.000000 -0.000002 0.000003 0.000002 0.000003 -0.000001 0.000001 0.000000 0.000002 -0.000003 -0.000003 0.000005 0.000000 -0.000003 -0.000002 0.000001 -0.000002 0.000001 0.000001 14.800537 -8.469996 -0.055373 74.425301 -27.296890 -15.598387 0.000002 -0.000000 -0.000002 20.591343 8.604200 113.460236 0.000000 -0.000006 0.000003 0.000000 0.000002 -0.000003 -0.000003 -0.000001 0.000001 -0.000003 -0.000001 0.000000 -0.000000 -0.000003 0.000000 0.000006 -0.000000 0.000000 0.000000 0.000000 0.000001 -0.000004 0.000001 0.000000 0.000000 0.000000 -0.000001 0.000000 -0.000002 0.000001 -0.000001 0.000001 0.000000 0.000002 -0.000006 -0.000001 0.000001 -0.000006 0.000001 0.000001 -0.000004 0.000001 0.000001 -0.000002 -0.000003 -1.044380 -4.734393 -4.046876 0.041691 0.327091 14.525010 5.257421 5.135708 -14.662084 0.065180 0.413690 -4.676745 0.593141 -5.014438 -4.224056 -0.041179 -0.325161 14.437336 4.132946 0.487792 -14.687534 0.063087 0.418587 -5.059686
-0.008905 8.276052 -0.487584 180.000000 -0.000011 180.000000 -2.710281 -2.099334 -1.987254 -0.014090 0.325347 -3.661431 3.642522 -0.511842 4.696587 0.018257 -0.354545 11.130315 -14.546671 6.815569 0.107422 -68.412994 27.562647 -10.793549 0.006418 -8.205163 -0.096777 -26.352619 9.381237 110.333153 -0.000014 -0.000014 0.000012 -0.295414 0.019252 -0.102778 -0.043128 0.237021 0.092743 -0.604239 0.061632 0.090685 -1.673371 0.180263 -0.114406 -0.874581 0.090270 -0.075963 -0.803999 -0.090105 0.084277 -1.907251 0.002642 0.221779 -0.477950 -0.003938 0.053896 -0.870080 -0.159433 0.074477 -1.755413 -0.139086 0.191900 -0.628315 -0.042671 0.043688 -0.965350 -0.221613 0.048433 -1.376147 -0.369338 0.056109 -0.935591 -0.231462 0.134491 14.798836 -8.472264 -0.055375 74.422630 -27.305639 -15.602973 0.000001 0.000003 0.000000 20.554146 8.600705 113.517281 -0.000020 0.000010 -0.000009 -0.174959 -0.160799 0.204542 0.197529 -0.124891 0.109520 0.604186 -0.061340 0.090801 1.677738 -0.124994 0.119316 0.876081 -0.069169 0.079634 0.803922 0.090337 0.084000 1.885646 -0.042855 0.358380 0.471972 -0.013551 0.091580 0.870041 0.159502 0.074055 1.686084 -0.054608 0.538429 0.593334 -0.010152 0.215221 0.965357 0.221430 0.047892 1.287856 -0.142908 0.593113 0.916945 -0.072764 0.316229 -1.044710 -4.740069 -4.046721 0.041691 0.327092 14.525012 5.251266 5.143414 -14.661926 0.065116 0.413295 -4.676970 0.593053 -5.016107 -4.224113 -0.041179 -0.325163 14.437386 4.126868 0.492803 -14.687946 0.063011 0.418033 -5.058621
-0.008904 8.276052 -0.487584 180.000000 -0.000011 180.000000 -2.714204 -2.113863 -1.974192 0.002230 0.326371 -3.701630 3.633232 -0.511502 4.708514 0.018229 -0.353997 11.153164 -14.544032 6.822837 0.107425 -68.442619 27.649059 -10.820477 0.006623 -8.330784 -0.098281 -26.418331 10.611416 109.757706 0.000005 -0.000003 0.000009 -0.570648 0.036728 -0.198611 -0.082948 0.457930 0.178959 -1.167049 0.119890 0.174529 -3.232684 0.345165 -0.225676 -1.689466 0.173304 -0.147976 -1.553090 -0.172970 0.163888 -3.683931 0.011700 0.428152 -0.923205 -0.007206 0.104131 -1.680830 -0.306922 0.145974 -3.391175 -0.263368 0.374360 -1.213632 -0.081975 0.084823 -1.864866 -0.427271 0.096887 -2.658658 -0.712124 0.116369 -1.807681 -0.445110 0.263160 14.794844 -8.477603 -0.055324 74.418663 -27.327011 -15.615322 -0.000002 -0.000002 0.000002 20.446218 8.590277 113.677452 -0.000013 0.000006 -0.000011 -0.338462 -0.310034 0.395521 0.381340 -0.241555 0.211135 1.167065 -0.119353 0.174814 3.240535 -0.244563 0.227159 1.692168 -0.134744 0.152909 1.553092 0.173416 0.163456 3.642128 -0.093364 0.690830 0.911662 -0.026852 0.176799 1.680818 0.307070 0.145250 3.256390 -0.119706 1.038396 1.146037 -0.021632 0.415575 1.864923 0.426975 0.095903 2.486367 -0.288013 1.142707 1.770835 -0.145060 0.609743 -1.045684 -4.756834 -4.046464 0.041693 0.327100 14.525396 5.233202 5.166117 -14.661619 0.064929 0.412137 -4.677515 0.592799 -5.020963 -4.224198 -0.041179 -0.325162 14.437387 4.108974 0.507503 -14.689087 0.062791 0.416424 -5.055607
-0.008901 8.276052 -0.487584 180.000000 -0.000011 180.000000 -2.719628 -2.130424 -1.957037 0.024528 0.327296 -3.753646 3.617961 -0.512448 4.724606 0.018378 -0.356889 11.184018 -14.540437 6.831952 0.107294 -68.487793 27.786505 -10.857202 0.007000 -8.551789 -0.100927 -26.511641 12.212430 109.012711 0.000005 0.000001 0.000017 -0.826270 0.052514 -0.287653 -0.119608 0.663070 0.258890 -1.689576 0.174720 0.251901 -4.680859 0.495492 -0.332984 -2.446204 0.249536 -0.215884 -2.248777 -0.249016 0.238778 -5.333693 0.025869 0.619511 -1.336629 -0.009884 0.150797 -2.433826 -0.442951 0.214266 -4.910383 -0.374023 0.546931 -1.757190 -0.118081 0.123380 -2.700291 -0.617561 0.144794 -3.849870 -1.029107 0.179166 -2.617888 -0.641710 0.385527 14.790266 -8.483796 -0.055135 74.419434 -27.353752 -15.633452 0.000000 0.000002 0.000002 20.273069 8.572966 113.924416 -0.000017 0.000015 0.000004 -0.490756 -0.448108 0.573269 0.551857 -0.350197 0.305191 1.689549 -0.173981 0.252319 4.691504 -0.358144 0.324330 2.449820 -0.196563 0.220103 2.248771 0.249604 0.238183 5.272811 -0.149404 0.998026 1.320277 -0.036023 0.254369 2.433832 0.443168 0.213200 4.713928 -0.192403 1.500872 1.659169 -0.033994 0.601507 2.700424 0.617127 0.143355 3.597893 -0.433019 1.650146 2.563318 -0.216145 0.881281 -1.047279 -4.784272 -4.045940 0.041695 0.327110 14.525835 5.203887 5.203186 -14.661006 0.064627 0.410263 -4.678467 0.592390 -5.028791 -4.224363 -0.041179 -0.325163 14.437437 4.079757 0.531423 -14.690992 0.062432 0.413795 -5.050611
-0.008898 8.276052 -0.487584 180.000000 -0.000011 180.000000 -2.725632 -2.142740 -1.939564 0.048787 0.327467 -3.805261 3.596885 -0.515920 4.741787 0.018865 -0.366337 11.216997 -14.536232 6.840441 0.106922 -68.545181 27.968508 -10.897032 0.007561 -8.875189 -0.104801 -26.605879 13.817387 108.276772 -0.000007 -0.000014 -0.000003 -1.062737 0.066761 -0.370117 -0.153307 0.852915 0.332730 -2.172900 0.226056 0.322997 -6.020795 0.632102 -0.435587 -3.146352 0.319196 -0.279625 -2.892468 -0.318518 0.308855 -6.859821 0.043893 0.796068 -1.718978 -0.008569 0.195345 -3.130573 -0.568006 0.279001 -6.316109 -0.472289 0.709128 -2.260005 -0.151163 0.159372 -3.473306 -0.792944 0.191551 -4.952282 -1.321129 0.243126 -3.367793 -0.822019 0.501236 14.786860 -8.488650 -0.054713 74.430923 -27.378597 -15.655379 -0.000002 -0.000002 0.000000 20.040205 8.548745 114.241859 -0.000012 0.000017 -0.000001 -0.631959 -0.575461 0.738000 0.709439 -0.450937 0.391918 2.172859 -0.225123 0.323596 6.033574 -0.465392 0.411624 3.150652 -0.254495 0.281501 2.892430 0.319297 0.308134 6.781019 -0.208972 1.280653 1.698301 -0.044965 0.326090 3.130586 0.568264 0.277686 6.061677 -0.270120 1.926913 2.133856 -0.046921 0.773426 3.473485 0.792418 0.189742 4.625028 -0.575891 2.117062 3.296155 -0.285226 1.131617 -1.049471 -4.821972 -4.045289 0.041700 0.327126 14.526578 5.163938 5.253994 -14.660217 0.064216 0.407718 -4.679808 0.591838 -5.039363 -4.224526 -0.041179 -0.325161 14.437386 4.039725 0.564061 -14.693569 0.061938 0.410197 -5.043795
-0.008894 8.276052 -0.487584 180.000000 -0.000011 180.000000 -2.731311 -2.144505 -1.925550 0.071019 0.326188 -3.844242 3.570175 -0.523156 4.756968 0.019850 -0.385470 11.246212 -14.532117 6.845859 0.106199 -68.610588 28.186464 -10.932889 0.008347 -9.303591 -0.109945 -26.654318 15.060369 107.734634 0.000003 -0.000006 0.000014 -1.280622 0.079599 -0.446141 -0.184124 1.027828 0.400650 -2.618073 0.273900 0.388161 -7.255467 0.755821 -0.532926 -3.791412 0.382684 -0.339065 -3.485531 -0.381843 0.374146 -8.265717 0.064653 0.958238 -2.071182 -0.007226 0.236294 -3.772531 -0.682454 0.340021 -7.611405 -0.559253 0.860661 -2.723288 -0.181370 0.192748 -4.185581 -0.953918 0.236763 -5.968275 -1.589048 0.306992 -4.059088 -0.986781 0.609896 14.786259 -8.489944 -0.053969 74.459259 -27.394285 -15.679138 0.000000 -0.000002 0.000000 19.753147 8.517597 114.613556 -0.000010 0.000017 -0.000011 -0.762416 -0.692330 0.889999 0.854458 -0.543971 0.471544 2.618062 -0.272763 0.388806 7.269830 -0.566025 0.489816 3.796237 -0.308543 0.337440 3.485495 0.382801 0.373227 8.170215 -0.270431 1.539598 2.046511 -0.053739 0.392173 3.772579 0.682836 0.338335 7.302787 -0.350523 2.317705 2.571131 -0.060115 0.931692 4.185808 0.953327 0.234513 5.570240 -0.714895 2.544865 3.970985 -0.351692 1.361408 -1.052237 -4.869529 -4.044490 0.041705 0.327148 14.527555 5.113989 5.317911 -14.659239 0.063703 0.404541 -4.681581 0.591154 -5.052461 -4.224786 -0.041179 -0.325164 14.437437 3.989373 0.604951 -14.696900 0.061319 0.405683 -5.035252
